<svg xmlns="http://www.w3.org/2000/svg" xmlns:xlink="http://www.w3.org/1999/xlink" version="1.1" id="CParBrandIcon" x="0px" y="0px" viewBox="0 0 800 520" style="enable-background:new 0 0 800 520;" xml:space="preserve">
<style type="text/css">
	.st0{fill-rule:evenodd;clip-rule:evenodd;fill:#000000;}
</style>
<path class="st0" d="M578.1,393.7l-68.4-0.9l49.4,84.8l68,0.2L578.1,393.7z M456.2,362.8L523.3,479c-95.9,0-187.4-1.2-285-1.2  C117.7,477.7,20,379.9,20,259.4S117.7,41,238.3,41h32.1l34,58.9h-66.1c-88,0-159.4,71.3-159.4,159.4s71.3,159.4,159.4,159.4  l181.5,1.2l-68.6-115.2c26.6,0,267.9,0.5,267.9,2.1c56.6-0.8,102-46.9,102-103.5s-45.5-102.7-102-103.5h-212l102.8,176.6  c-22.7-0.2-45.5-0.3-68.2-0.4L305,41h314c89.1,0.8,161,73.3,161,162.4S708.2,365,619,365.8L456.2,362.8L456.2,362.8z" fill="#000000"/>
</svg>